# xmcd
#
# Track frame offsets: 
#        150
#        16037
#        36678
#        55776
#        70822
#        96947
#        121254
#        137694
#        166294
#        186796
#        205097
#
# Disc length: 3130 seconds
#
# Revision: 0
# Processed by: cddbd v1.5.2PL0 Copyright (c) Steve Scherf et al.
# Submitted via: ExactAudioCopyFreeDBPlugin 1.0
#
DISCID=940c380b
DTITLE=Pearl Handled Revolver - This Mountain Waits
DYEAR=2013
DGENRE=Blues
TTITLE0=Do It Again
TTITLE1=Hello Mary
TTITLE2=Johnny's In The Basement
TTITLE3=Rattle Your Bones
TTITLE4=Blind
TTITLE5=The Red, White and Blues
TTITLE6=Josey
TTITLE7=Hourglass
TTITLE8=Rabbit Hole
TTITLE9=You Got It Wrong
TTITLE10=Honeycomb
EXTD=
EXTT0=
EXTT1=
EXTT2=
EXTT3=
EXTT4=
EXTT5=
EXTT6=
EXTT7=
EXTT8=
EXTT9=
EXTT10=
PLAYORDER=
